# AST/ASF file generated using VICON BodyLanguage
# -----------------------------------------------
:version 1.10
:name VICON
:units
  mass 1.0
  length 0.45
  angle deg
:documentation
   .ast/.asf automatically generated from VICON data using
   VICON BodyBuilder and BodyLanguage model FoxedUp or BRILLIANT.MOD
:root
   order TX TY TZ RX RY RZ
   axis XYZ
   position 0 0 0  
   orientation 0 0 0 
:bonedata
  begin
     id 1 
     name lhipjoint
     direction 0.650112 -0.723553 0.232005 
     length 2.45805 
     axis 0 0 0  XYZ
  end
  begin
     id 2 
     name lfemur
     direction 0.34202 -0.939693 0  
     length 7.00073  
     axis 0 0 20  XYZ
    dof rx ry rz
    limits (-160.0 20.0)
           (-70.0 70.0)
           (-60.0 70.0)
  end
  begin
     id 3 
     name ltibia
     direction 0.34202 -0.939693 0   
     length 7.8748   
     axis 0 0 20   XYZ
    dof rx
    limits (-10.0 170.0)
  end
  begin
     id 4 
     name lfoot
     direction 0.0542825 -0.14914 0.987325   
     length 1.75978   
     axis -90 7.62852e-016 20   XYZ
    dof rx rz
    limits (-45.0 90.0)
           (-70.0 20.0)
  end
  begin
     id 5 
     name ltoes
     direction 1.53509e-011 -4.21906e-011 1   
     length 0.893912   
     axis -90 7.62852e-016 20   XYZ
    dof rx
    limits (-90.0 20.0)
  end
  begin
     id 6 
     name rhipjoint
     direction -0.637897 -0.733345 0.235145   
     length 2.42522  
     axis 0 0 0  XYZ 
  end
  begin
     id 7 
     name rfemur
     direction -0.34202 -0.939693 0   
     length 7.02549   
     axis 0 0 -20   XYZ
    dof rx ry rz
    limits (-160.0 20.0)
           (-70.0 70.0)
           (-70.0 60.0)
  end
  begin
     id 8 
     name rtibia
     direction -0.34202 -0.939693 0   
     length 7.71512   
     axis 0 0 -20   XYZ
    dof rx
    limits (-10.0 170.0)
 end
 begin
     id 9 
     name rfoot
     direction -0.0822618 -0.226012 0.970645   
     length 1.90014  
     axis -90 -7.62852e-016 -20   XYZ
    dof rx rz
    limits (-45.0 90.0)
           (-20.0 70.0)
  end
  begin
     id 10 
     name rtoes
     direction -1.53542e-011 -4.21872e-011 1   
     length 0.957341   
     axis -90 -7.62852e-016 -20   XYZ
    dof rx
    limits (-90.0 20.0)
  end
  begin
     id 11 
     name lowerback
     direction -0.0022947 0.999774 -0.0211557   
     length 1.89909   
     axis 0 0 0   XYZ
    dof rx ry rz
    limits (-20.0 45.0)
           (-30.0 30.0)
           (-30.0 30.0)
  end
  begin
     id 12 
     name upperback
     direction 0.0107737 0.998635 0.0511027   
     length 1.8853   
     axis 0 0 0   XYZ
    dof rx ry rz
    limits (-20.0 45.0)
           (-30.0 30.0)
           (-30.0 30.0)
  end
  begin
     id 13 
     name thorax
     direction 0.011824 0.998136 0.0598754   
     length 1.88911   
     axis 0 0 0   XYZ
    dof rx ry rz
    limits (-20.0 45.0)
           (-30.0 30.0)
           (-30.0 30.0)
  end
  begin
     id 14 
     name lowerneck
     direction -0.0685355 0.990319 0.120714   
     length 1.91222   
     axis 0 0 0   XYZ
    dof rx ry rz
    limits (-20.0 45.0)
           (-30.0 30.0)
           (-30.0 30.0)
  end
  begin
     id 15 
     name upperneck
     direction 0.0886204 0.955665 -0.280805   
     length 1.92526   
     axis 0 0 0   XYZ
    dof rx ry rz
    limits (-20.0 45.0)
           (-30.0 30.0)
           (-30.0 30.0)
  end
  begin
     id 16
     name head
     direction 0.0233423 0.993502 -0.111393  
     length 1.96056  
     axis 0 0 0   XYZ
    dof rx ry rz
    limits (-20.0 45.0)
           (-30.0 30.0)
           (-30.0 30.0)
  end
  begin
     id 17 
     name lclavicle
     direction 0.941873 0.32922 0.0670041  
     length 3.31705  
     axis 0 0 0   XYZ
    dof ry rz
    limits (-20.0 10.0)
           (0.0 20.0)
  end
  begin
     id 18 
     name lhumerus
     direction 1 -4.4898e-011 3.38707e-028   
     length 5.29277   
     axis 180 -30 -90   XYZ
    dof rx ry rz
    limits (-60.0 90.0)
           (-90.0 90.0)
           (-90.0 90.0)
  end
  begin
     id 19
     name lradius
     direction 1 -4.48952e-011 1.63213e-028   
     length 2.85226   
     axis 180 -30 -90   XYZ
    dof rx
    limits (-10.0 170.0)
  end
  begin
     id 20
     name lwrist
     direction 1 -4.49001e-011 1.27856e-027   
     length 1.42613   
     axis -1.61767e-015 90 90   XYZ
    dof ry
    limits (-180.0 0.0)
 end
  begin
     id 21 
     name lhand
     direction 1 -4.48976e-011 2.55931e-027   
     length 0.602097   
     axis -1.63363e-015 90 90   XYZ
    dof rx rz
    limits (-90.0 90.0)
           (-45.0 45.0)
  end
  begin
     id 22 
     name lfingers
     direction 1 -4.48986e-011 5.11684e-027   
     length 0.485426   
     axis -3.26723e-015 90 90   XYZ
    dof rx
    limits (0.0 90.0)
  end
  begin
     id 23
     name lthumb
     direction 0.707107 -6.34915e-011 0.707107   
     length 0.696978   
     axis -90 45 -2.25915e-014   XYZ
    dof rx rz
    limits (-45.0 45.0)
           (-45.0 45.0)
  end
  begin
     id 24 
     name rclavicle
     direction -0.939974 0.327078 0.0973096   
     length 3.10337  
     axis 0 0 0   XYZ 
    dof ry rz
    limits (-10.0 20.0)
           (-20.0 0.0)
  end
  begin
     id 25 
     name rhumerus
     direction -1 -4.48975e-011 1.83745e-027  
     length 5.13304   
     axis 180 30 90   XYZ
    dof rx ry rz
    limits (-90.0 60.0)
           (-90.0 90.0)
           (-90.0 90.0)
  end
  begin
     id 26 
     name rradius
     direction -1 -4.48977e-011 7.1775e-029   
     length 2.74305   
     axis 180 30 90   XYZ
    dof rx
    limits (-10.0 170.0)
  end
  begin
     id 27 
     name rwrist
     direction -1 -4.48977e-011 1.27963e-027   
     length 1.37152   
     axis -1.61767e-015 -90 -90   XYZ
    dof ry
    limits (-180.0 0.0)
  end
  begin
     id 28
     name rhand
     direction -1 -4.4888e-011 2.56782e-027   
     length 0.767976   
     axis -1.63363e-015 -90 -90   XYZ
    dof rx rz
    limits (-90.0 90.0)
           (-45.0 45.0)
  end
  begin
     id 29
     name rfingers
     direction -1 -4.48947e-011 5.12384e-027   
     length 0.619162   
     axis -3.26723e-015 -90 -90   XYZ
    dof rx
    limits (0.0 90.0)
  end
  begin
     id 30
     name rthumb
     direction -0.707107 -6.34857e-011 0.707107   
     length 0.888997   
     axis -90 -45 2.25915e-014   XYZ
    dof rx rz
    limits (-45.0 45.0)
           (-45.0 45.0)
  end
:hierarchy
  begin
    root lhipjoint rhipjoint lowerback
    lhipjoint lfemur
    lfemur ltibia
    ltibia lfoot
    lfoot ltoes
    rhipjoint rfemur
    rfemur rtibia
    rtibia rfoot
    rfoot rtoes
    lowerback upperback
    upperback thorax
    thorax lowerneck lclavicle rclavicle
    lowerneck upperneck
    upperneck head
    lclavicle lhumerus
    lhumerus lradius
    lradius lwrist
    lwrist lhand lthumb
    lhand lfingers
    rclavicle rhumerus
    rhumerus rradius
    rradius rwrist
    rwrist rhand rthumb
    rhand rfingers
  end

#!OML:ASF F:\VICON\USERDATA\INSTALL\rory3\rory3.ASF
:FULLY-SPECIFIED
:DEGREES
676
root 0.234441 16.5863 0.0345085 -2.3126 54.0324 -1.86756
lowerback -3.02584 6.6165 1.52485
upperback -6.64567 9.05462 1.74393
thorax -5.27183 4.54623 0.811077
lowerneck -1.74594 -14.9833 -20.6438
upperneck 17.0612 -22.7059 19.4224
head 10.4501 -10.7212 7.21775
rclavicle 6.84813e-014 1.86858e-014
rhumerus -8.67028 28.1082 -96.9382
rradius 123.589
rwrist 36.624
rhand 48.6899 10.2506
rfingers 7.12502
rthumb 69.0716 11.7636
lclavicle 6.84813e-014 1.86858e-014
lhumerus -23.6538 0.755786 97.0758
lradius 126.079
lwrist -19.9455
lhand 35.692 47.2226
lfingers 7.12502
lthumb 58.7384 62.2625
rfemur -1.82767 -31.1505 19.8215
rtibia 34.4756
rfoot -29.9481 -23.6597
rtoes -8.8305
lfemur -23.9335 -34.0665 -15.7186
ltibia 41.3885
lfoot -18.3207 -21.1187
ltoes -14.9322
677
root 0.230455 16.5491 0.0221921 -2.02537 55.3674 -1.62599
lowerback -3.17883 6.55908 1.19551
upperback -6.5836 8.98428 1.93616
thorax -5.20184 4.5371 1.20505
lowerneck -1.63939 -14.9152 -20.9396
upperneck 16.9521 -22.5997 19.5468
head 10.4242 -10.6894 7.33435
rclavicle 6.10269e-014 1.70955e-014
rhumerus -9.50569 27.8394 -97.2498
rradius 123.465
rwrist 37.068
rhand 48.887 10.6086
rfingers 7.12502
rthumb 69.2068 12.498
lclavicle 6.10269e-014 1.70955e-014
lhumerus -23.7076 0.303139 97.3474
lradius 126.026
lwrist -18.7372
lhand 35.8023 46.8185
lfingers 7.12502
lthumb 58.8339 61.7673
rfemur -2.38725 -32.4071 19.5253
rtibia 35.5802
rfoot -30.5193 -23.4871
rtoes -7.53851
lfemur -24.8159 -34.2437 -15.7762
ltibia 42.0519
lfoot -18.3165 -22.315
ltoes -14.8498
678
root 0.227647 16.5149 0.0105735 -1.5731 56.5501 -1.18176
lowerback -3.36579 6.51687 0.733535
upperback -6.50191 8.9346 2.14829
thorax -5.11562 4.5451 1.6953
lowerneck -1.39244 -14.8147 -21.3006
upperneck 16.6425 -22.4457 19.7167
head 10.3036 -10.652 7.49323
rclavicle -1.40143e-014 -9.93923e-015
rhumerus -10.1752 27.7655 -97.3859
rradius 123.348
rwrist 36.9085
rhand 49.0261 10.3334
rfingers 7.12502
rthumb 69.3015 12.4914
lclavicle -1.40143e-014 -9.93923e-015
lhumerus -23.5384 0.019153 97.6019
lradius 126.026
lwrist -17.4957
lhand 35.9934 46.762
lfingers 7.12502
lthumb 58.9992 61.5517
rfemur -2.88199 -33.5936 19.1058
rtibia 36.6031
rfoot -30.9503 -23.3556
rtoes -7.12329
lfemur -25.5774 -34.3249 -15.9809
ltibia 42.6201
lfoot -18.3804 -23.2668
ltoes -15.2571
679
root 0.224437 16.482 0.00468791 -1.42233 57.5638 -0.956495
lowerback -3.48764 6.52501 0.389165
upperback -6.39926 8.95111 2.33322
thorax -5.02368 4.57769 2.08838
lowerneck -1.11735 -14.7108 -21.3523
upperneck 16.3333 -22.2864 19.7756
head 10.12 -10.6009 7.57086
rclavicle -4.08502e-014 -9.93923e-015
rhumerus -10.7371 27.5667 -97.5885
rradius 123.197
rwrist 36.659
rhand 48.9307 10.1484
rfingers 7.12502
rthumb 69.2366 12.1219
lclavicle -4.08502e-014 -9.93923e-015
lhumerus -23.2236 -0.48113 97.785
lradius 126.014
lwrist -16.5022
lhand 35.7656 46.8585
lfingers 7.12502
lthumb 58.8021 61.8377
rfemur -3.16913 -34.5145 18.828
rtibia 37.5117
rfoot -31.4957 -23.4113
rtoes -7.39291
lfemur -26.0765 -34.3799 -16.1313
ltibia 43.1238
lfoot -18.4758 -24.0094
ltoes -15.4269
680
root 0.220634 16.4525 0.00319349 -1.42621 58.4062 -0.841945
lowerback -3.57695 6.52221 0.0565982
upperback -6.27603 8.95453 2.55299
thorax -4.93248 4.60308 2.50871
lowerneck -1.02372 -14.587 -21.271
upperneck 16.262 -22.0828 19.6942
head 10.0073 -10.5125 7.57893
rclavicle -6.47044e-014 2.38542e-015
rhumerus -11.1 27.3476 -97.8382
rradius 123.036
rwrist 36.526
rhand 48.9735 10.1292
rfingers 7.12502
rthumb 69.2658 12.1854
lclavicle -6.47044e-014 2.38542e-015
lhumerus -22.8852 -0.988429 97.949
lradius 125.83
lwrist -16.1424
lhand 34.7448 46.5016
lfingers 7.12502
lthumb 57.9147 62.2993
rfemur -3.32827 -35.2089 18.628
rtibia 38.273
rfoot -31.9362 -23.5133
rtoes -7.34419
lfemur -26.4166 -34.399 -16.2528
ltibia 43.5718
lfoot -18.5325 -24.6711
ltoes -15.3192
681
root 0.217644 16.4265 0.001879 -1.46444 59.0744 -0.781363
lowerback -3.63653 6.49733 -0.224714
upperback -6.19079 8.93335 2.80404
thorax -4.89479 4.61509 2.92826
lowerneck -0.99451 -14.4468 -21.3288
upperneck 16.4 -21.8749 19.6326
head 10.0007 -10.4203 7.61507
rclavicle 2.18663e-014 2.38542e-014
rhumerus -11.3872 27.2156 -98.1471
rradius 122.864
rwrist 36.2775
rhand 49.1234 9.91202
rfingers 7.12502
rthumb 69.3676 12.2595
lclavicle 2.18663e-014 2.38542e-014
lhumerus -22.5616 -1.15399 98.0076
lradius 125.826
lwrist -16.3142
lhand 34.9559 46.2645
lfingers 7.12502
lthumb 58.0988 61.897
rfemur -3.46667 -35.6792 18.5167
rtibia 38.8988
rfoot -32.212 -23.7022
rtoes -7.15165
lfemur -26.7039 -34.3669 -16.3392
ltibia 43.9706
lfoot -18.6676 -25.2477
ltoes -15.7173
